<svg width="138" height="138" viewBox="0 0 138 138" fill="none" xmlns="http://www.w3.org/2000/svg">
<path fill-rule="evenodd" clip-rule="evenodd" d="M88.1672 40.3143C82.4936 36.5234 75.8234 34.5 69 34.5V0C82.6468 0 95.9873 4.04678 107.334 11.6286C118.681 19.2104 127.525 29.9867 132.748 42.5947C137.97 55.2028 139.337 69.0766 136.674 82.4612C134.012 95.8458 127.44 108.141 117.79 117.79C108.141 127.44 95.8458 134.012 82.4612 136.674C69.0766 139.337 55.2028 137.97 42.5947 132.748C29.9867 127.525 19.2104 118.681 11.6286 107.334C4.04678 95.9873 0 82.6468 0 69H34.5C34.5 75.8234 36.5234 82.4936 40.3143 88.1672C44.1051 93.8407 49.4934 98.2626 55.7975 100.874C62.1014 103.485 69.0383 104.168 75.7306 102.837C82.4229 101.506 88.5701 98.2201 93.3953 93.3953C98.2201 88.5701 101.506 82.4229 102.837 75.7306C104.168 69.0383 103.485 62.1014 100.874 55.7975C98.2626 49.4934 93.8407 44.1051 88.1672 40.3143Z" fill="white"/>
<path fill-rule="evenodd" clip-rule="evenodd" d="M34.5 1.49428e-05C34.5 4.53062 33.6076 9.01686 31.8738 13.2026C30.14 17.3883 27.5988 21.1916 24.3952 24.3952C21.1916 27.5988 17.3883 30.1401 13.2026 31.8739C9.01683 33.6076 4.53059 34.5 1.50803e-06 34.5L0 69C9.0612 69 18.0337 67.2153 26.4052 63.7477C34.7767 60.2801 42.3832 55.1976 48.7902 48.7903C55.1976 42.3833 60.2801 34.7767 63.7477 26.4052C67.2153 18.0337 69 9.0612 69 0L34.5 1.49428e-05Z" fill="white"/>
</svg>
