<svg width="46" height="46" viewBox="0 0 46 46" fill="none" xmlns="http://www.w3.org/2000/svg">
<path d="M31.8523 0C31.9594 0 32.0664 0 32.1796 0C32.4422 3.24402 31.2039 5.66794 29.6991 7.42326C28.2225 9.16647 26.2005 10.8572 22.9303 10.6006C22.7121 7.40307 23.9524 5.15892 25.4552 3.40763C26.8489 1.77552 29.4042 0.32319 31.8523 0Z" fill="#D2D2D2"/>
<path d="M41.7521 33.7652C41.7521 33.7976 41.7521 33.8258 41.7521 33.8561C40.8331 36.6396 39.5221 39.0252 37.9223 41.239C36.4619 43.2488 34.6723 45.9535 31.4767 45.9535C28.7155 45.9535 26.8814 44.178 24.0514 44.1295C21.0579 44.0811 19.4116 45.6142 16.6746 46C16.3615 46 16.0484 46 15.7414 46C13.7316 45.7091 12.1096 44.1174 10.9279 42.6833C7.44352 38.4454 4.75094 32.9714 4.25 25.9663C4.25 25.2795 4.25 24.5947 4.25 23.908C4.46209 18.8945 6.89814 14.8182 10.1361 12.8427C11.845 11.7924 14.1941 10.8975 16.81 11.2975C17.931 11.4712 19.0763 11.855 20.0802 12.2347C21.0316 12.6004 22.2214 13.2488 23.3485 13.2144C24.112 13.1922 24.8715 12.7943 25.6411 12.5135C27.8954 11.6995 30.1052 10.7663 33.0179 11.2046C36.5185 11.7338 39.003 13.2892 40.5381 15.6888C37.5769 17.5734 35.2358 20.4135 35.6358 25.2633C35.9913 29.6688 38.5526 32.2463 41.7521 33.7652Z" fill="#D2D2D2"/>
</svg>
