<svg width="18" height="18" viewBox="0 0 18 18" fill="none" xmlns="http://www.w3.org/2000/svg">
<g clip-path="url(#clip0_1_1983)">
<path d="M17.9655 4.15649L11.652 10.47C10.948 11.1722 9.99431 11.5665 9 11.5665C8.00569 11.5665 7.05197 11.1722 6.348 10.47L0.0345 4.15649C0.024 4.27499 0 4.38224 0 4.49999V13.5C0.00119089 14.4942 0.396661 15.4473 1.09966 16.1503C1.80267 16.8533 2.7558 17.2488 3.75 17.25H14.25C15.2442 17.2488 16.1973 16.8533 16.9003 16.1503C17.6033 15.4473 17.9988 14.4942 18 13.5V4.49999C18 4.38224 17.976 4.27499 17.9655 4.15649Z" fill="#8790A9"/>
<path d="M10.5916 9.4095L17.4421 2.55825C17.1102 2.00799 16.6422 1.55253 16.0831 1.2358C15.524 0.919067 14.8927 0.751755 14.2501 0.75H3.75011C3.10752 0.751755 2.47623 0.919067 1.91713 1.2358C1.35802 1.55253 0.889964 2.00799 0.558105 2.55825L7.40861 9.4095C7.83128 9.83048 8.40354 10.0669 9.0001 10.0669C9.59667 10.0669 10.1689 9.83048 10.5916 9.4095Z" fill="#8790A9"/>
</g>
<defs>
<clipPath id="clip0_1_1983">
<rect width="18" height="18" fill="white"/>
</clipPath>
</defs>
</svg>
